# xmcd
#
# Track frame offsets: 
#        150
#        16626
#        31057
#        48480
#        72149
#
# Disc length: 1215 seconds
#
# Revision: 0
# Processed by: cddbd v1.5.2PL0 Copyright (c) Steve Scherf et al.
# Submitted via: ExactAudioCopy v0.95b4
#
DISCID=3004bd05
DTITLE=Vuk - Rakkauden liekistö
DYEAR=2008
DGENRE=Experimental
TTITLE0=Elena Leeve
TTITLE1=Rukous
TTITLE2=Pasi sanoo
TTITLE3=Salassa kuin murhat
TTITLE4=Valaiden laulu
EXTD=
EXTT0=
EXTT1=
EXTT2=
EXTT3=
EXTT4=
PLAYORDER=
